<svg width="1440" height="800" viewBox="0 0 1440 800" fill="none" xmlns="http://www.w3.org/2000/svg">
  <rect width="1440" height="800" fill="#f8fafc"/>
  <g opacity="0.15">
    <path d="M-122 42L1560 42" stroke="#0f172a" stroke-width="0.5"/>
    <path d="M-122 142L1560 142" stroke="#0f172a" stroke-width="0.5"/>
    <path d="M-122 242L1560 242" stroke="#0f172a" stroke-width="0.5"/>
    <path d="M-122 342L1560 342" stroke="#0f172a" stroke-width="0.5"/>
    <path d="M-122 442L1560 442" stroke="#0f172a" stroke-width="0.5"/>
    <path d="M-122 542L1560 542" stroke="#0f172a" stroke-width="0.5"/>
    <path d="M-122 642L1560 642" stroke="#0f172a" stroke-width="0.5"/>
    <path d="M-122 742L1560 742" stroke="#0f172a" stroke-width="0.5"/>
    <path d="M42 -122L42 922" stroke="#0f172a" stroke-width="0.5"/>
    <path d="M142 -122L142 922" stroke="#0f172a" stroke-width="0.5"/>
    <path d="M242 -122L242 922" stroke="#0f172a" stroke-width="0.5"/>
    <path d="M342 -122L342 922" stroke="#0f172a" stroke-width="0.5"/>
    <path d="M442 -122L442 922" stroke="#0f172a" stroke-width="0.5"/>
    <path d="M542 -122L542 922" stroke="#0f172a" stroke-width="0.5"/>
    <path d="M642 -122L642 922" stroke="#0f172a" stroke-width="0.5"/>
    <path d="M742 -122L742 922" stroke="#0f172a" stroke-width="0.5"/>
    <path d="M842 -122L842 922" stroke="#0f172a" stroke-width="0.5"/>
    <path d="M942 -122L942 922" stroke="#0f172a" stroke-width="0.5"/>
    <path d="M1042 -122L1042 922" stroke="#0f172a" stroke-width="0.5"/>
    <path d="M1142 -122L1142 922" stroke="#0f172a" stroke-width="0.5"/>
    <path d="M1242 -122L1242 922" stroke="#0f172a" stroke-width="0.5"/>
    <path d="M1342 -122L1342 922" stroke="#0f172a" stroke-width="0.5"/>
    <path d="M1442 -122L1442 922" stroke="#0f172a" stroke-width="0.5"/>
  </g>
</svg>
